<svg width="137" height="22" viewBox="0 0 137 22" fill="none" xmlns="http://www.w3.org/2000/svg">
<path d="M119.711 3.64801H124.151V7.77601L123.983 8.35201V11.904L124.151 12.96V21.288H119.711V3.64801ZM122.687 10.488C122.927 9.01601 123.383 7.74401 124.055 6.67201C124.727 5.60001 125.575 4.76801 126.599 4.17601C127.639 3.56801 128.791 3.26401 130.055 3.26401C131.399 3.26401 132.575 3.56801 133.583 4.17601C134.607 4.78401 135.407 5.63201 135.983 6.72001C136.559 7.79201 136.847 9.04801 136.847 10.488C136.847 11.928 136.559 13.192 135.983 14.28C135.407 15.352 134.607 16.192 133.583 16.8C132.575 17.408 131.399 17.712 130.055 17.712C128.775 17.712 127.623 17.416 126.599 16.824C125.591 16.216 124.751 15.376 124.079 14.304C123.407 13.216 122.943 11.944 122.687 10.488ZM132.335 10.488C132.335 9.75201 132.183 9.10401 131.879 8.54401C131.575 7.96801 131.151 7.52001 130.607 7.20001C130.079 6.86401 129.471 6.69601 128.783 6.69601C128.079 6.69601 127.407 6.86401 126.767 7.20001C126.127 7.52001 125.567 7.96801 125.087 8.54401C124.623 9.10401 124.263 9.75201 124.007 10.488C124.263 11.224 124.623 11.88 125.087 12.456C125.567 13.016 126.127 13.464 126.767 13.8C127.407 14.12 128.079 14.28 128.783 14.28C129.471 14.28 130.079 14.12 130.607 13.8C131.151 13.464 131.575 13.016 131.879 12.456C132.183 11.88 132.335 11.224 132.335 10.488Z" fill="#1C1C1C"/>
<path d="M100.328 3.64801H104.768V7.77601L104.6 8.35201V11.904L104.768 12.96V21.288H100.328V3.64801ZM103.304 10.488C103.544 9.01601 104 7.74401 104.672 6.67201C105.344 5.60001 106.192 4.76801 107.216 4.17601C108.256 3.56801 109.408 3.26401 110.672 3.26401C112.016 3.26401 113.192 3.56801 114.2 4.17601C115.224 4.78401 116.024 5.63201 116.6 6.72001C117.176 7.79201 117.464 9.04801 117.464 10.488C117.464 11.928 117.176 13.192 116.6 14.28C116.024 15.352 115.224 16.192 114.2 16.8C113.192 17.408 112.016 17.712 110.672 17.712C109.392 17.712 108.24 17.416 107.216 16.824C106.208 16.216 105.368 15.376 104.696 14.304C104.024 13.216 103.56 11.944 103.304 10.488ZM112.952 10.488C112.952 9.75201 112.8 9.10401 112.496 8.54401C112.192 7.96801 111.768 7.52001 111.224 7.20001C110.696 6.86401 110.088 6.69601 109.4 6.69601C108.696 6.69601 108.024 6.86401 107.384 7.20001C106.744 7.52001 106.184 7.96801 105.704 8.54401C105.24 9.10401 104.88 9.75201 104.624 10.488C104.88 11.224 105.24 11.88 105.704 12.456C106.184 13.016 106.744 13.464 107.384 13.8C108.024 14.12 108.696 14.28 109.4 14.28C110.088 14.28 110.696 14.12 111.224 13.8C111.768 13.464 112.192 13.016 112.496 12.456C112.8 11.88 112.952 11.224 112.952 10.488Z" fill="#1C1C1C"/>
<path d="M93.1659 17.328L92.5659 12.36L93.2139 10.488L92.5659 8.64001L93.1659 3.64801H97.7979L96.9579 10.488L97.7979 17.328H93.1659ZM94.2699 10.488C94.0299 11.944 93.5739 13.216 92.9019 14.304C92.2299 15.376 91.3819 16.216 90.3579 16.824C89.3339 17.416 88.1819 17.712 86.9019 17.712C85.5579 17.712 84.3739 17.408 83.3499 16.8C82.3419 16.192 81.5499 15.352 80.9739 14.28C80.3979 13.192 80.1099 11.928 80.1099 10.488C80.1099 9.04801 80.3979 7.79201 80.9739 6.72001C81.5499 5.63201 82.3419 4.78401 83.3499 4.17601C84.3739 3.56801 85.5579 3.26401 86.9019 3.26401C88.1819 3.26401 89.3339 3.56801 90.3579 4.17601C91.3819 4.76801 92.2299 5.60001 92.9019 6.67201C93.5899 7.74401 94.0459 9.01601 94.2699 10.488ZM84.6219 10.488C84.6219 11.224 84.7739 11.88 85.0779 12.456C85.3819 13.016 85.7979 13.464 86.3259 13.8C86.8699 14.12 87.4939 14.28 88.1979 14.28C88.9019 14.28 89.5659 14.12 90.1899 13.8C90.8299 13.464 91.3899 13.016 91.8699 12.456C92.3499 11.88 92.7099 11.224 92.9499 10.488C92.7099 9.75201 92.3499 9.10401 91.8699 8.54401C91.3899 7.96801 90.8299 7.52001 90.1899 7.20001C89.5659 6.86401 88.9019 6.69601 88.1979 6.69601C87.4939 6.69601 86.8699 6.86401 86.3259 7.20001C85.7979 7.52001 85.3819 7.96801 85.0779 8.54401C84.7739 9.10401 84.6219 9.75201 84.6219 10.488Z" fill="#1C1C1C"/>
<path d="M69.8582 17.712C68.1302 17.712 66.6182 17.408 65.3222 16.8C64.0262 16.192 63.0182 15.344 62.2982 14.256C61.5782 13.168 61.2182 11.912 61.2182 10.488C61.2182 9.04801 61.5782 7.79201 62.2982 6.72001C63.0182 5.63201 64.0262 4.78401 65.3222 4.17601C66.6342 3.56801 68.1462 3.26401 69.8582 3.26401C71.5862 3.26401 73.0982 3.56801 74.3942 4.17601C75.7062 4.78401 76.7222 5.63201 77.4422 6.72001C78.1622 7.79201 78.5222 9.04801 78.5222 10.488C78.5222 11.928 78.1622 13.192 77.4422 14.28C76.7222 15.352 75.7062 16.192 74.3942 16.8C73.0982 17.408 71.5862 17.712 69.8582 17.712ZM69.8582 14.352C70.7382 14.352 71.4822 14.2 72.0902 13.896C72.7142 13.576 73.1862 13.128 73.5062 12.552C73.8422 11.976 74.0102 11.288 74.0102 10.488C74.0102 9.68801 73.8422 9.00001 73.5062 8.42401C73.1862 7.84801 72.7142 7.40801 72.0902 7.10401C71.4822 6.78401 70.7382 6.62401 69.8582 6.62401C69.0102 6.62401 68.2742 6.78401 67.6502 7.10401C67.0262 7.40801 66.5462 7.84801 66.2102 8.42401C65.8742 9.00001 65.7062 9.68801 65.7062 10.488C65.7062 11.288 65.8742 11.976 66.2102 12.552C66.5462 13.128 67.0262 13.576 67.6502 13.896C68.2742 14.2 69.0102 14.352 69.8582 14.352Z" fill="#1C1C1C"/>
<path d="M46.8358 6.96V5.016L49.6678 3.984L51.5878 0H54.1318V3.648H60.0358V6.96H54.1318V11.472C54.1318 12.496 54.3398 13.216 54.7558 13.632C55.1718 14.032 55.9158 14.232 56.9878 14.232C57.6758 14.232 58.2758 14.176 58.7878 14.064C59.3158 13.936 59.8118 13.768 60.2758 13.56V16.944C59.7958 17.136 59.1638 17.312 58.3798 17.472C57.6118 17.632 56.8118 17.712 55.9798 17.712C54.5238 17.712 53.3238 17.48 52.3798 17.016C51.4518 16.552 50.7638 15.904 50.3158 15.072C49.8838 14.224 49.6678 13.232 49.6678 12.096V6.96H46.8358Z" fill="#1C1C1C"/>
<path d="M46.1263 12.936C46.1263 13.96 45.8223 14.832 45.2143 15.552C44.6223 16.256 43.7503 16.792 42.5983 17.16C41.4463 17.528 40.0463 17.712 38.3983 17.712C36.7183 17.712 35.2463 17.504 33.9823 17.088C32.7183 16.672 31.7343 16.088 31.0303 15.336C30.3263 14.584 29.9503 13.712 29.9023 12.72H34.4383C34.5343 13.12 34.7583 13.472 35.1103 13.776C35.4783 14.08 35.9503 14.312 36.5263 14.472C37.1023 14.616 37.7823 14.688 38.5663 14.688C39.6223 14.688 40.4223 14.576 40.9663 14.352C41.5103 14.128 41.7823 13.792 41.7823 13.344C41.7823 13.008 41.5823 12.752 41.1823 12.576C40.7983 12.4 40.1023 12.272 39.0943 12.192L36.5983 12C35.0303 11.888 33.7823 11.64 32.8543 11.256C31.9263 10.872 31.2623 10.384 30.8623 9.79201C30.4783 9.20001 30.2863 8.53601 30.2863 7.80001C30.2863 6.79201 30.5983 5.95201 31.2223 5.28001C31.8623 4.60801 32.7423 4.10401 33.8623 3.76801C34.9823 3.43201 36.2943 3.26401 37.7983 3.26401C39.3023 3.26401 40.6383 3.46401 41.8063 3.86401C42.9903 4.26401 43.9343 4.81601 44.6383 5.52001C45.3583 6.22401 45.7663 7.04801 45.8623 7.99201H41.3263C41.2623 7.67201 41.0863 7.37601 40.7983 7.10401C40.5263 6.83201 40.1263 6.61601 39.5983 6.45601C39.0863 6.28001 38.4143 6.19201 37.5823 6.19201C36.6383 6.19201 35.9183 6.29601 35.4223 6.50401C34.9263 6.71201 34.6783 7.01601 34.6783 7.41601C34.6783 7.72001 34.8303 7.96001 35.1343 8.13601C35.4383 8.31201 36.0143 8.44001 36.8623 8.52001L40.1023 8.76001C41.6383 8.88801 42.8383 9.13601 43.7023 9.50401C44.5823 9.85601 45.2063 10.32 45.5743 10.896C45.9423 11.472 46.1263 12.152 46.1263 12.936Z" fill="#1C1C1C"/>
<path d="M21.1054 17.712C19.4734 17.712 18.0094 17.408 16.7134 16.8C15.4334 16.192 14.4254 15.344 13.6894 14.256C12.9534 13.168 12.5854 11.896 12.5854 10.44C12.5854 9.01601 12.9374 7.76801 13.6414 6.69601C14.3454 5.62401 15.3134 4.78401 16.5454 4.17601C17.7934 3.56801 19.2014 3.26401 20.7694 3.26401C22.3694 3.26401 23.7454 3.61601 24.8974 4.32001C26.0494 5.02401 26.9374 6.01601 27.5614 7.29601C28.1854 8.57601 28.4974 10.08 28.4974 11.808H16.1614V9.00001H26.0494L24.4414 10.008C24.3934 9.25601 24.2094 8.62401 23.8894 8.11201C23.5854 7.58401 23.1774 7.18401 22.6654 6.91201C22.1534 6.62401 21.5454 6.48001 20.8414 6.48001C20.0734 6.48001 19.4094 6.63201 18.8494 6.93601C18.2894 7.24001 17.8494 7.66401 17.5294 8.20801C17.2254 8.75201 17.0734 9.38401 17.0734 10.104C17.0734 11.016 17.2734 11.792 17.6734 12.432C18.0894 13.072 18.6814 13.56 19.4494 13.896C20.2334 14.232 21.1854 14.4 22.3054 14.4C23.3294 14.4 24.3534 14.264 25.3774 13.992C26.4014 13.704 27.3214 13.304 28.1374 12.792V15.696C27.2094 16.336 26.1454 16.832 24.9454 17.184C23.7614 17.536 22.4814 17.712 21.1054 17.712Z" fill="#1C1C1C"/>
<path d="M0 3.64801H4.512L5.328 8.56801V17.328H0.864V8.20801L0 3.64801ZM11.856 3.45601V7.29601C11.424 7.20001 10.992 7.12801 10.56 7.08001C10.144 7.03201 9.76 7.00801 9.408 7.00801C8.64 7.00801 7.944 7.16801 7.32 7.48801C6.712 7.79201 6.224 8.28001 5.856 8.95201C5.504 9.62401 5.328 10.496 5.328 11.568L4.44 10.464C4.552 9.48801 4.736 8.56801 4.992 7.70401C5.248 6.84001 5.6 6.08001 6.048 5.42401C6.496 4.75201 7.048 4.22401 7.704 3.84001C8.376 3.45601 9.184 3.26401 10.128 3.26401C10.4 3.26401 10.688 3.28001 10.992 3.31201C11.296 3.34401 11.584 3.39201 11.856 3.45601Z" fill="#1C1C1C"/>
</svg>
