<svg width="20" height="20" viewBox="0 0 20 20" fill="none" xmlns="http://www.w3.org/2000/svg">
<path d="M7.52005 2.359C7.55052 2.25533 7.61376 2.16432 7.70029 2.0996C7.78682 2.03488 7.89199 1.99994 8.00005 2H12C12.0792 2.00006 12.1573 2.01893 12.2277 2.05504C12.2982 2.09116 12.3591 2.1435 12.4054 2.20775C12.4516 2.272 12.482 2.34632 12.494 2.4246C12.5059 2.50288 12.4991 2.58287 12.474 2.658L10.694 8H14.5C14.5937 7.99994 14.6855 8.02616 14.7649 8.0757C14.8444 8.12523 14.9083 8.19608 14.9495 8.28019C14.9907 8.36429 15.0074 8.45825 14.9977 8.55139C14.9881 8.64453 14.9525 8.73309 14.895 8.807L7.89505 17.807C7.82334 17.8996 7.72137 17.9642 7.60695 17.9893C7.49252 18.0144 7.3729 17.9986 7.26897 17.9446C7.16503 17.8905 7.08337 17.8017 7.03824 17.6935C6.99311 17.5854 6.98738 17.4649 7.02205 17.353L8.82305 11.5H5.50005C5.42231 11.5 5.34564 11.482 5.27611 11.4472C5.20659 11.4124 5.14613 11.3619 5.09953 11.2997C5.05294 11.2375 5.02149 11.1652 5.00769 11.0887C4.9939 11.0122 4.99813 10.9336 5.02005 10.859L7.52005 2.359Z" fill="white"/>
</svg>
