<svg width="20" height="20" viewBox="0 0 20 20" fill="none" xmlns="http://www.w3.org/2000/svg">
<path d="M14.6493 4C15.0905 3.42641 15.3309 2.72365 15.3333 2H14C14 2.53043 13.7893 3.03914 13.4142 3.41421C13.0391 3.78929 12.5304 4 12 4H8C7.46957 4 6.96086 3.78929 6.58579 3.41421C6.21071 3.03914 6 2.53043 6 2L4.66667 2C4.66912 2.72365 4.90946 3.42641 5.35067 4H2V4.66667C2.0714 5.63577 2.46874 6.55217 3.12733 7.26667C4.06766 6.36566 5.05931 5.5198 6.09733 4.73333C6.54584 5.04262 7.0639 5.23614 7.60533 5.29667C7.60533 5.29667 5.718 6.718 5.02533 7.33333H6C6.88373 7.33439 7.73096 7.68592 8.35585 8.31081C8.98075 8.93571 9.33227 9.78294 9.33333 10.6667V14H8V10.6667C7.99804 10.4315 7.95424 10.1985 7.87067 9.97867C7.70862 10.0122 7.54077 10.005 7.38218 9.95775C7.22359 9.91046 7.07922 9.82456 6.962 9.70774C6.84479 9.59092 6.7584 9.44684 6.71057 9.28841C6.66275 9.12998 6.655 8.96216 6.688 8.8C6.46838 8.71512 6.23542 8.66998 6 8.66667H4.29L6.014 16.1333C6.04678 16.6383 6.2701 17.1119 6.63879 17.4584C7.00748 17.8049 7.49402 17.9985 8 18H12C12.506 17.9985 12.9925 17.8049 13.3612 17.4584C13.7299 17.1119 13.9532 16.6383 13.986 16.1333L15.71 8.66667H14C13.7648 8.6687 13.5319 8.71249 13.312 8.796C13.3456 8.95805 13.3384 9.1259 13.2911 9.28448C13.2438 9.44307 13.1579 9.58745 13.0411 9.70466C12.9243 9.82188 12.7802 9.90827 12.6217 9.95609C12.4633 10.0039 12.2955 10.0117 12.1333 9.97867C12.0484 10.1983 12.0032 10.4312 12 10.6667V14H10.6667V10.6667C10.6677 9.78294 11.0193 8.93571 11.6441 8.31081C12.269 7.68592 13.1163 7.33439 14 7.33333H14.9747C14.282 6.718 12.3947 5.29333 12.3947 5.29333C12.9358 5.23381 13.4538 5.04143 13.9027 4.73333C14.9407 5.5198 15.9323 6.36566 16.8727 7.26667C17.5313 6.55217 17.9286 5.63577 18 4.66667V4H14.6493ZM12 15.3333C12.1768 15.3333 12.3464 15.4036 12.4714 15.5286C12.5964 15.6536 12.6667 15.8232 12.6667 16C12.6667 16.1768 12.5964 16.3464 12.4714 16.4714C12.3464 16.5964 12.1768 16.6667 12 16.6667H8C7.82319 16.6667 7.65362 16.5964 7.5286 16.4714C7.40357 16.3464 7.33333 16.1768 7.33333 16C7.33333 15.8232 7.40357 15.6536 7.5286 15.5286C7.65362 15.4036 7.82319 15.3333 8 15.3333H12Z" fill="white"/>
</svg>
