<svg width="20" height="20" viewBox="0 0 20 20" fill="none" xmlns="http://www.w3.org/2000/svg">
<path d="M11 6.07941V5.50003H11.5C11.7762 5.50003 12 5.27628 12 5.00003V4.50003C12 4.22378 11.7762 4.00003 11.5 4.00003H8.5C8.22375 4.00003 8 4.22378 8 4.50003V5.00003C8 5.27628 8.22375 5.50003 8.5 5.50003H9V6.07941C5.60906 6.56597 3 9.47441 3 13H17C17 9.47441 14.3909 6.56597 11 6.07941ZM17.5 14H2.5C2.22375 14 2 14.2238 2 14.5V15.5C2 15.7763 2.22375 16 2.5 16H17.5C17.7762 16 18 15.7763 18 15.5V14.5C18 14.2238 17.7762 14 17.5 14Z" fill="white"/>
</svg>
